<svg xmlns="http://www.w3.org/2000/svg" xmlns:xlink="http://www.w3.org/1999/xlink" viewBox="0 0 300 48.84"><defs><style>.cls-1,.cls-5{fill:none;}.cls-2{fill:#00a40e;}.cls-3{fill:url(#linear-gradient);}.cls-4,.cls-5{opacity:0.3;}.cls-6{clip-path:url(#clip-path);}.cls-7{fill:url(#linear-gradient-2);}</style><linearGradient id="linear-gradient" x1="6.28" y1="16.82" x2="21.03" y2="48.45" gradientUnits="userSpaceOnUse"><stop offset="0" stop-color="#8dc52e"/><stop offset="1" stop-color="#099645"/></linearGradient><clipPath id="clip-path"><path class="cls-1" d="M32.16,17.53h-5v-5h5ZM38.51,20h-5v5h5Zm-8.83.9h-5v5h5Zm14.81-6.1h-4.4v4.41h4.4ZM38.28,9H33.87V13.4h4.41Zm-6-3.33H27.87v4.4h4.41ZM39.41,4H36V7.35h3.39ZM44.49,9.5H41.1v3.39h3.39Zm4.87-.68H47V11.2h2.38ZM44.49,4.19H42.12V6.57h2.37ZM41.33,0H39V2.37h2.37Z"/></clipPath><linearGradient id="linear-gradient-2" x1="45.72" y1="-2.1" x2="28.35" y2="27.99" gradientUnits="userSpaceOnUse"><stop offset="0" stop-color="#93c82c"/><stop offset="1" stop-color="#069446"/></linearGradient></defs><g id="Layer_2" data-name="Layer 2"><g id="Layer_1-2" data-name="Layer 1"><path class="cls-2" d="M61,32.11c-1.06.19-1.2.26-1.2,1.54v1.44A10,10,0,0,0,60,36.91a28.49,28.49,0,0,1-4.54.62c-4.4,0-6.94-2.68-6.94-6.39,0-4.22,3.44-6.34,7.43-6.34a30.67,30.67,0,0,1,3.78.43c0,.83.19,2.25.32,3.28l-.73.13A3.54,3.54,0,0,0,57,25.85a5.67,5.67,0,0,0-1.6-.22c-2.26,0-4,2-4,5.19s1.16,5.9,4.24,5.9a2.41,2.41,0,0,0,1.2-.26c.28-.17.43-.49.43-1.07V33.74c0-1.31-.27-1.44-1.84-1.63v-.69H61Z"/><path class="cls-2" d="M74.14,37.36c-.11,0-.34,0-.56,0-2.38-.11-3.08-.62-3.64-1.4A36,36,0,0,1,68,32.64,1,1,0,0,0,66.87,32l-.38,0v2.74c0,1.51.19,1.65,1.59,1.81v.7H62.35v-.7c1.42-.15,1.59-.3,1.59-1.81V27.56c0-1.48-.19-1.69-1.59-1.8v-.7h5.43a5.69,5.69,0,0,1,3.4.72,2.85,2.85,0,0,1,1.25,2.49,3.2,3.2,0,0,1-2.34,3c.28.56,1,1.78,1.58,2.64a14.24,14.24,0,0,0,1.42,1.95,2.22,2.22,0,0,0,1.18.82ZM67,31.23a2.72,2.72,0,0,0,1.83-.49,2.65,2.65,0,0,0,.89-2.19c0-2-1.15-2.7-2.2-2.7-.5,0-.75.08-.86.19s-.17.34-.17.71v4.48Z"/><path class="cls-2" d="M85.22,34.06c-.09.51-.62,2.66-.79,3.19H74.7v-.68c1.71-.17,1.82-.26,1.82-1.83V27.58c0-1.6-.22-1.71-1.5-1.82v-.7h6.09c2,0,2.63,0,2.89,0,0,.33.11,1.87.19,3l-.73.1a4.75,4.75,0,0,0-.81-1.75c-.34-.37-.58-.48-1.54-.48H79.9c-.72,0-.79,0-.79.67v3.92H81c1,0,1.23-.28,1.51-1.61h.74v4.18h-.74c-.3-1.39-.45-1.62-1.53-1.62H79.11V34.7c0,1.29,0,1.69,1.2,1.7h1.33c1,0,1.33-.13,1.74-.63a8.47,8.47,0,0,0,1.15-1.88Z"/><path class="cls-2" d="M96.62,34.06c-.09.51-.62,2.66-.79,3.19H86.1v-.68c1.71-.17,1.82-.26,1.82-1.83V27.58c0-1.6-.22-1.71-1.5-1.82v-.7h6.09c2,0,2.63,0,2.89,0,0,.33.11,1.87.19,3l-.73.1a4.75,4.75,0,0,0-.81-1.75c-.34-.37-.58-.48-1.54-.48H91.3c-.72,0-.79,0-.79.67v3.92h1.84c1,0,1.23-.28,1.51-1.61h.73v4.18h-.73c-.3-1.39-.45-1.62-1.53-1.62H90.51V34.7c0,1.29,0,1.69,1.2,1.7H93c1,0,1.33-.13,1.74-.63a8.47,8.47,0,0,0,1.15-1.88Z"/><path class="cls-2" d="M110.79,25.76c-1.14.15-1.5.39-1.55,1.23a29.93,29.93,0,0,0-.12,3v7.46h-1.05l-7.81-9.37v4.24c0,1.63,0,2.36.09,2.9.08.83.47,1.26,1.86,1.33v.7H97.56v-.7c1.07-.09,1.54-.37,1.65-1.25a26.65,26.65,0,0,0,.11-3V27.88a2.26,2.26,0,0,0-.39-1.52c-.34-.47-.79-.53-1.58-.6v-.7H101l7.14,8.31V30c0-1.63,0-2.25-.08-2.94s-.35-1.2-1.91-1.29v-.7h4.63Z"/><path class="cls-2" d="M127.59,34a25.55,25.55,0,0,1-1,3,16.19,16.19,0,0,1-3.45.49c-5,0-7.12-3.24-7.12-6.22,0-3.88,3-6.51,7.46-6.51a20.46,20.46,0,0,1,3.54.45c.1.88.23,2.27.36,3.09l-.75.14a3.21,3.21,0,0,0-2-2.55,4.69,4.69,0,0,0-1.63-.27c-2.72,0-4.09,2.27-4.09,5.21,0,3.44,1.76,5.76,4.33,5.76,1.58,0,2.63-.83,3.64-2.89Z"/><path class="cls-2" d="M135.82,37.25v-.7c1.18-.16,1.18-.37.92-1.18-.19-.56-.49-1.4-.77-2.15h-3.65c-.21.58-.47,1.29-.66,1.87-.39,1.18.06,1.33,1.54,1.46v.7h-4.63v-.7c1.18-.15,1.48-.31,2.12-1.89l3.9-9.69.9-.17c1.19,3.26,2.47,6.6,3.69,9.73.69,1.74.86,1.87,2.08,2v.7Zm-1.65-9c-.54,1.35-1.07,2.6-1.53,4h3Z"/><path class="cls-2" d="M147.26,25.06a6.2,6.2,0,0,1,3.37.77,3.14,3.14,0,0,1,1.47,2.81c0,2.72-2.31,3.87-4.32,3.88a4.61,4.61,0,0,1-.56,0l-1.09-.28v2.54c0,1.58.14,1.65,1.77,1.8v.7h-6v-.7c1.4-.16,1.59-.22,1.59-1.8V27.59c0-1.57-.19-1.74-1.59-1.83v-.7Zm-1.13,6.36a2.47,2.47,0,0,0,1,.19c.86,0,2.27-.51,2.27-3,0-2.1-1.15-2.8-2.37-2.8a1.19,1.19,0,0,0-.73.19.72.72,0,0,0-.17.58Z"/><path class="cls-2" d="M163.89,34.06c-.1.51-.62,2.66-.79,3.19h-9.73v-.68c1.71-.17,1.82-.26,1.82-1.83V27.58c0-1.6-.23-1.71-1.5-1.82v-.7h6.09c2,0,2.63,0,2.89,0,0,.33.11,1.87.19,3l-.73.1a4.75,4.75,0,0,0-.81-1.75c-.34-.37-.58-.48-1.54-.48h-1.22c-.71,0-.78,0-.78.67v3.92h1.83c1,0,1.24-.28,1.52-1.61h.73v4.18h-.73c-.3-1.39-.45-1.62-1.53-1.62h-1.82V34.7c0,1.29,0,1.69,1.2,1.7h1.33c1.05,0,1.33-.13,1.74-.63a8.43,8.43,0,0,0,1.14-1.88Z"/><path class="cls-2" d="M179.43,34.06c-.09.51-.62,2.66-.79,3.19h-9.73v-.68c1.71-.17,1.82-.26,1.82-1.83V27.58c0-1.6-.22-1.71-1.5-1.82v-.7h6.1c2,0,2.62,0,2.88,0,0,.33.11,1.87.19,3l-.73.1a4.75,4.75,0,0,0-.81-1.75c-.34-.37-.58-.48-1.53-.48h-1.22c-.72,0-.79,0-.79.67v3.92h1.84c1.05,0,1.23-.28,1.51-1.61h.74v4.18h-.74c-.3-1.39-.45-1.62-1.53-1.62h-1.82V34.7c0,1.29,0,1.69,1.2,1.7h1.33c1.05,0,1.33-.13,1.74-.63a8.47,8.47,0,0,0,1.15-1.88Z"/><path class="cls-2" d="M193.6,25.76c-1.14.15-1.5.39-1.55,1.23s-.11,1.37-.11,3v7.46h-1.05l-7.82-9.37v4.24c0,1.63,0,2.36.09,2.9.08.83.47,1.26,1.86,1.33v.7h-4.65v-.7c1.07-.09,1.54-.37,1.65-1.25a26.65,26.65,0,0,0,.11-3V27.88a2.26,2.26,0,0,0-.39-1.52c-.34-.47-.79-.53-1.58-.6v-.7h3.66L191,33.37V30c0-1.63,0-2.25-.07-2.94s-.36-1.2-1.92-1.29v-.7h4.63Z"/><path class="cls-2" d="M207.42,32.11c-1.07.19-1.2.26-1.2,1.54v1.44a11,11,0,0,0,.11,1.82,28.18,28.18,0,0,1-4.53.62c-4.41,0-6.94-2.68-6.94-6.39,0-4.22,3.43-6.34,7.42-6.34a31.14,31.14,0,0,1,3.79.43c0,.83.19,2.25.32,3.28l-.73.13a3.53,3.53,0,0,0-2.31-2.79,5.6,5.6,0,0,0-1.59-.22c-2.27,0-4,2-4,5.19s1.16,5.9,4.23,5.9a2.39,2.39,0,0,0,1.2-.26c.28-.17.43-.49.43-1.07V33.74c0-1.31-.26-1.44-1.83-1.63v-.69h5.6Z"/><path class="cls-2" d="M208.74,37.25v-.7c1.42-.13,1.59-.24,1.59-1.81V27.59c0-1.57-.19-1.72-1.59-1.83v-.7h5.79v.7c-1.41.13-1.6.26-1.6,1.83v7.15c0,1.55.17,1.66,1.6,1.81v.7Z"/><path class="cls-2" d="M229.19,25.76c-1.15.15-1.5.39-1.56,1.23s-.11,1.37-.11,3v7.46h-1.05l-7.82-9.37v4.24a26.53,26.53,0,0,0,.1,2.9c.07.83.47,1.26,1.85,1.33v.7H216v-.7c1.07-.09,1.54-.37,1.65-1.25a23.7,23.7,0,0,0,.12-3V27.88a2.22,2.22,0,0,0-.4-1.52c-.34-.47-.79-.53-1.57-.6v-.7h3.65l7.14,8.31V30c0-1.63,0-2.25-.07-2.94s-.36-1.2-1.91-1.29v-.7h4.63Z"/><path class="cls-2" d="M240.64,34.06c-.09.51-.62,2.66-.78,3.19h-9.73v-.68c1.7-.17,1.82-.26,1.82-1.83V27.58c0-1.6-.23-1.71-1.5-1.82v-.7h6.09c2,0,2.62,0,2.88,0,0,.33.12,1.87.19,3l-.73.1a4.91,4.91,0,0,0-.8-1.75c-.34-.37-.59-.48-1.54-.48h-1.22c-.71,0-.79,0-.79.67v3.92h1.84c1,0,1.24-.28,1.52-1.61h.73v4.18h-.73c-.3-1.39-.45-1.62-1.54-1.62h-1.82V34.7c0,1.29,0,1.69,1.2,1.7h1.33c1.05,0,1.33-.13,1.75-.63A8.43,8.43,0,0,0,240,33.89Z"/><path class="cls-2" d="M252,34.06c-.09.51-.62,2.66-.79,3.19h-9.72v-.68c1.7-.17,1.81-.26,1.81-1.83V27.58c0-1.6-.22-1.71-1.5-1.82v-.7h6.1c2,0,2.62,0,2.88,0,0,.33.12,1.87.19,3l-.73.1a4.75,4.75,0,0,0-.81-1.75c-.33-.37-.58-.48-1.53-.48h-1.22c-.71,0-.79,0-.79.67v3.92h1.84c1,0,1.24-.28,1.52-1.61H250v4.18h-.73c-.3-1.39-.45-1.62-1.54-1.62h-1.82V34.7c0,1.29,0,1.69,1.2,1.7h1.33c1,0,1.33-.13,1.74-.63a8.47,8.47,0,0,0,1.15-1.88Z"/><path class="cls-2" d="M264.94,37.36c-.11,0-.34,0-.56,0-2.38-.11-3.08-.62-3.64-1.4a36,36,0,0,1-1.93-3.3,1,1,0,0,0-1.14-.62l-.38,0v2.74c0,1.51.19,1.65,1.6,1.81v.7h-5.74v-.7c1.42-.15,1.59-.3,1.59-1.81V27.56c0-1.48-.18-1.69-1.59-1.8v-.7h5.44a5.68,5.68,0,0,1,3.39.72,2.85,2.85,0,0,1,1.25,2.49,3.2,3.2,0,0,1-2.34,3c.28.56,1,1.78,1.58,2.64a14.24,14.24,0,0,0,1.42,1.95,2.22,2.22,0,0,0,1.18.82Zm-7.14-6.13a2.77,2.77,0,0,0,1.84-.49,2.67,2.67,0,0,0,.88-2.19c0-2-1.15-2.7-2.2-2.7-.5,0-.75.08-.86.19s-.17.34-.17.71v4.48Z"/><path class="cls-2" d="M265.73,37.25v-.7c1.43-.13,1.59-.24,1.59-1.81V27.59c0-1.57-.18-1.72-1.59-1.83v-.7h5.79v.7c-1.4.13-1.59.26-1.59,1.83v7.15c0,1.55.17,1.66,1.59,1.81v.7Z"/><path class="cls-2" d="M286.18,25.76c-1.14.15-1.5.39-1.55,1.23a29.93,29.93,0,0,0-.12,3v7.46h-1.05l-7.81-9.37v4.24a27.58,27.58,0,0,0,.09,2.9c.08.83.47,1.26,1.86,1.33v.7H273v-.7c1.07-.09,1.54-.37,1.65-1.25a26.65,26.65,0,0,0,.11-3V27.88a2.26,2.26,0,0,0-.39-1.52c-.34-.47-.79-.53-1.58-.6v-.7h3.66l7.14,8.31V30c0-1.63,0-2.25-.08-2.94s-.35-1.2-1.91-1.29v-.7h4.63Z"/><path class="cls-2" d="M300,32.11c-1.07.19-1.2.26-1.2,1.54v1.44a11,11,0,0,0,.11,1.82,28.35,28.35,0,0,1-4.53.62c-4.41,0-6.94-2.68-6.94-6.39,0-4.22,3.43-6.34,7.42-6.34a31.14,31.14,0,0,1,3.79.43c0,.83.19,2.25.32,3.28l-.73.13a3.55,3.55,0,0,0-2.31-2.79,5.6,5.6,0,0,0-1.59-.22c-2.27,0-4,2-4,5.19s1.17,5.9,4.24,5.9a2.39,2.39,0,0,0,1.2-.26c.28-.17.43-.49.43-1.07V33.74c0-1.31-.26-1.44-1.83-1.63v-.69H300Z"/><path d="M23,10.19a2.61,2.61,0,0,0-5.09-.26.19.19,0,0,1,0,.08,2.9,2.9,0,0,0-.07.6,2.55,2.55,0,0,0,.13.78,2.6,2.6,0,0,0,4.87.25,17.77,17.77,0,0,1,3.55,1.07v-1h1.46A19.23,19.23,0,0,0,23,10.19Zm-1.75,1.23a1.16,1.16,0,0,1-1.72-.09h0a1.14,1.14,0,0,1-.25-.72,1.19,1.19,0,0,1,.26-.74,1.13,1.13,0,0,1,.89-.42,1.15,1.15,0,0,1,1,.51,1.22,1.22,0,0,1,.2.65A1.15,1.15,0,0,1,21.26,11.42Z"/><path d="M36.14,19.23H34.36A17.26,17.26,0,0,0,33,17.43V15.29A19.5,19.5,0,0,1,36.14,19.23Z"/><path d="M38.65,25.79H37.12a18,18,0,0,1-6.71,17.83c2.18-10.47-20.34-17.77-14.37-32a15.44,15.44,0,0,1,.77-1.6A19.49,19.49,0,1,0,39,29.36,19.92,19.92,0,0,0,38.65,25.79ZM28.17,45.09h0a3.9,3.9,0,0,1-.35.19c-.51,0-1-.07-1.5-.13C13.81,43.72,7.92,33.86,7.69,23.41,7.24,33.66,13,44.35,24.63,46.58a18,18,0,0,1-5.17.76h-.52a2.42,2.42,0,0,1-.39,0l-.75-.05h-.11a18,18,0,0,1-7-2.18h0A18,18,0,0,1,14.52,12q-.23.62-.39,1.2a12.34,12.34,0,0,0-.24,6h0C16.21,30.26,33.17,36.81,28.17,45.09Z"/><path class="cls-3" d="M13.89,19.18h0a12.34,12.34,0,0,1,.24-6,18,18,0,0,0-3.42,31.86h0a18,18,0,0,0,7,2.18h.11c.37,0,1.31.07,1.59.07h.07a18,18,0,0,0,5.17-.76C13,44.35,7.24,33.66,7.69,23.41c.23,10.45,6.12,20.31,18.63,21.74.49.06,1,.1,1.5.13a3.9,3.9,0,0,0,.35-.19h0C33.17,36.81,16.21,30.26,13.89,19.18ZM17,38.58a.94.94,0,0,1-1.32-1.32A.94.94,0,0,1,17,38.58ZM21.94,42c-.59.79-2,.71-3.21-.17s-1.67-2.24-1.08-3,2-.71,3.2.17S22.52,41.23,21.94,42Z"/><path class="cls-4" d="M28.05,45.3l.12-.2c5-8.28-12-14.83-14.28-25.91,0,9.73,17.78,20.51,12.43,26,.49.06,1,.1,1.5.13Z"/><path class="cls-5" d="M18.94,47.34a23.12,23.12,0,0,0,3.92-.66l-.72-.28c-.28.36-4.45.86-4.45.86h0Z"/><path class="cls-4" d="M22.86,46.68a23.12,23.12,0,0,1-3.92.66l-.39,0c-.29,0-.57,0-.86-.06h0s4.17-.5,4.45-.86Z"/><g class="cls-6"><rect class="cls-7" x="24.71" width="24.64" height="25.89"/></g></g></g></svg>